HIERARCHY
ROOT Hips
{
    OFFSET 0.000000 0.000000 0.000000
    CHANNELS 6 Xposition Yposition Zposition Zrotation Xrotation Yrotation
    JOINT Spine
    {
        OFFSET -0.000000 14.517291 0.000000
        CHANNELS 3 Zrotation Xrotation Yrotation
        JOINT Spine1
        {
            OFFSET -0.000000 37.558300 0.000000
            CHANNELS 3 Zrotation Xrotation Yrotation
            JOINT Neck
            {
                OFFSET -0.000000 37.404057 3.400369
                CHANNELS 3 Zrotation Xrotation Yrotation
                JOINT Head
                {
                    OFFSET -0.000000 24.785618 -3.540803
                    CHANNELS 3 Zrotation Xrotation Yrotation
                    End Site
                    {
                        OFFSET -0.000000 35.408028 0.000000
                    }
                }
            }
            JOINT LeftShoulder
            {
                OFFSET 6.992933 33.973492 -0.192664
                CHANNELS 3 Zrotation Xrotation Yrotation
                JOINT LeftArm
                {
                    OFFSET 21.527611 0.000000 0.000000
                    CHANNELS 3 Zrotation Xrotation Yrotation
                    JOINT LeftForeArm
                    {
                        OFFSET 56.353916 0.000000 0.000000
                        CHANNELS 3 Zrotation Xrotation Yrotation
                        JOINT LeftHand
                        {
                            OFFSET 47.774071 0.000000 0.000000
                            CHANNELS 3 Zrotation Xrotation Yrotation
                            End Site
                            {
                                OFFSET 26.556021 0.000000 0.000000
                            }
                        }
                    }
                }
            }
            JOINT RightShoulder
            {
                OFFSET -7.065357 33.973492 -0.192664
                CHANNELS 3 Zrotation Xrotation Yrotation
                JOINT RightArm
                {
                    OFFSET -21.527611 0.000000 0.000000
                    CHANNELS 3 Zrotation Xrotation Yrotation
                    JOINT RightForeArm
                    {
                        OFFSET -56.353916 0.000000 0.000000
                        CHANNELS 3 Zrotation Xrotation Yrotation
                        JOINT RightHand
                        {
                            OFFSET -47.774071 0.000000 0.000000
                            CHANNELS 3 Zrotation Xrotation Yrotation
                            End Site
                            {
                                OFFSET -26.556021 0.000000 0.000000
                            }
                        }
                    }
                }
            }
        }
    }
    JOINT LeftUpLeg
    {
        OFFSET 17.704014 0.000000 0.000000
        CHANNELS 3 Zrotation Xrotation Yrotation
        JOINT LeftLeg
        {
            OFFSET -0.000000 -81.181816 0.000000
            CHANNELS 3 Zrotation Xrotation Yrotation
            JOINT LeftFoot
            {
                OFFSET -0.000000 -62.821102 0.000000
                CHANNELS 3 Zrotation Xrotation Yrotation
                JOINT LeftToeBase
                {
                    OFFSET -0.000000 -11.507608 26.556021
                    CHANNELS 3 Zrotation Xrotation Yrotation
                    End Site
                    {
                        OFFSET -0.000000 0.000000 7.081605
                    }
                }
            }
        }
    }
    JOINT RightUpLeg
    {
        OFFSET -17.704014 0.000000 0.000000
        CHANNELS 3 Zrotation Xrotation Yrotation
        JOINT RightLeg
        {
            OFFSET -0.000000 -81.181816 0.000000
            CHANNELS 3 Zrotation Xrotation Yrotation
            JOINT RightFoot
            {
                OFFSET -0.000000 -62.821102 0.000000
                CHANNELS 3 Zrotation Xrotation Yrotation
                JOINT RightToeBase
                {
                    OFFSET -0.000000 -11.507608 26.556021
                    CHANNELS 3 Zrotation Xrotation Yrotation
                    End Site
                    {
                        OFFSET -0.000000 0.000000 7.081605
                    }
                }
            }
        }
    }
}
MOTION
Frames:    13
Frame Time:    0.008333
-15.737791    151.893036    -96.259842    1.464189    -4.369347    47.768238    4.685681    0.714362    8.291191    -7.706299    3.439271    3.007226    -4.874780    0.919915    -22.122938    18.023136    3.624097    -20.483189    0.666936    5.288733    -13.559974    -30.849068    25.560036    -51.375401    -5.210233    -20.208296    -125.299683    -4.948088    -29.026379    -9.072769    -12.810929    2.166436    12.791317    32.099361    -12.364347    80.102661    -4.879918    10.434152    73.406960    -21.448486    7.675091    33.000404    18.388062    -4.988758    -7.397219    -17.997763    40.297676    -21.120550    5.503011    -31.546547    51.405159    0.000000    0.000000    0.000000    -23.028503    -16.685963    -25.879187    9.723238    29.681929    -16.594683    3.679132    2.972383    -9.210439    0.000000    0.000000    0.000000    
-15.710834    151.894012    -96.271660    1.472856    -4.367400    47.715302    4.692122    0.698527    8.250240    -7.737720    3.474420    2.996691    -4.838787    0.916937    -22.114651    18.003532    3.600376    -20.477724    0.695084    5.280533    -13.546942    -30.832767    25.585638    -51.389038    -5.190673    -20.267550    -125.295326    -4.846640    -29.056698    -9.013052    -12.773545    2.166692    12.779387    31.984093    -12.348049    79.946877    -4.905158    10.405490    73.351295    -21.423248    7.623897    33.221848    18.372570    -4.959944    -7.366920    -18.012350    40.300449    -21.085749    5.508286    -31.547850    51.393169    0.000000    0.000000    0.000000    -23.034111    -16.695910    -25.852274    9.717345    29.672977    -16.598253    3.686414    2.994157    -9.175820    0.000000    0.000000    0.000000    
-15.684986    151.896744    -96.283852    1.475993    -4.366103    47.665833    4.703769    0.665284    8.199383    -7.762942    3.528602    2.983750    -4.799881    0.900750    -22.098103    17.960865    3.587337    -20.467495    0.715975    5.267016    -13.531754    -30.833321    25.567343    -51.384136    -5.190201    -20.268183    -125.289749    -4.730753    -29.065617    -8.952175    -12.749086    2.184630    12.777582    31.891817    -12.370949    79.790222    -4.911272    10.400080    73.316681    -21.350567    7.603914    33.412144    18.358253    -4.936893    -7.337959    -18.018488    40.305138    -21.065926    5.505054    -31.555183    51.403748    0.000000    0.000000    0.000000    -23.034752    -16.703865    -25.825277    9.722157    29.648895    -16.560820    3.678782    3.014892    -9.198139    0.000000    0.000000    0.000000    
-15.659142    151.898514    -96.295914    1.488276    -4.365466    47.617176    4.714500    0.652381    8.158802    -7.805151    3.565469    2.973885    -4.768445    0.902581    -22.098749    17.954990    3.573040    -20.471109    0.749578    5.252896    -13.532666    -30.839516    25.545691    -51.372570    -5.198558    -20.249422    -125.291542    -4.597229    -29.074688    -8.878637    -12.705344    2.201115    12.759144    31.806660    -12.386201    79.618286    -4.902287    10.405548    73.293877    -21.343700    7.558942    33.629166    18.344337    -4.904548    -7.322709    -18.049509    40.297684    -21.013618    5.520490    -31.548758    51.400291    0.000000    0.000000    0.000000    -23.042913    -16.707417    -25.784191    9.733738    29.634434    -16.580349    3.684242    3.033964    -9.179155    0.000000    0.000000    0.000000    
-15.635347    151.897568    -96.306931    1.496502    -4.365908    47.565914    4.484265    1.318600    8.517005    -7.513983    2.501118    3.022732    -4.905017    1.042712    -22.371338    17.854776    3.827120    -20.795904    0.685272    5.654544    -13.907948    -30.820856    25.639992    -51.507694    -5.103569    -20.286488    -125.261993    -4.648280    -28.934357    -8.975657    -12.872121    2.775286    11.847816    31.878752    -12.132214    79.812973    -4.969209    10.365550    73.425247    -21.196459    7.605633    33.712833    18.336988    -4.880418    -7.306785    -18.094896    40.300175    -20.948437    5.519086    -31.551458    51.397755    0.000000    0.000000    0.000000    -23.046892    -16.718374    -25.758442    9.743642    29.627323    -16.554157    3.644571    3.047535    -9.187729    0.000000    0.000000    0.000000    
-15.609262    151.898575    -96.318092    1.515509    -4.370118    47.515064    4.468469    1.323881    8.480413    -7.497478    2.517280    3.011262    -4.917093    1.035848    -22.373877    17.844559    3.838405    -20.799389    0.686752    5.661207    -13.900244    -30.784634    25.640835    -51.563038    -5.132101    -20.374315    -125.326241    -4.465849    -29.100876    -8.638618    -12.864139    2.799633    11.820108    31.766718    -12.124721    79.614792    -4.978703    10.320853    73.416145    -21.215481    7.516106    33.933910    18.323292    -4.841740    -7.295588    -18.134398    40.295834    -20.888508    5.526669    -31.544737    51.393551    0.000000    0.000000    0.000000    -23.053396    -16.717876    -25.724468    9.738158    29.616697    -16.555401    3.651035    3.075161    -9.158310    0.000000    0.000000    0.000000    
-15.583554    151.898849    -96.328583    1.531881    -4.375548    47.461731    4.445339    1.279738    8.478408    -7.460930    2.605508    3.014883    -4.910715    1.026336    -22.388855    17.820196    3.826140    -20.816204    0.688232    5.637426    -13.978717    -30.773941    25.623142    -51.546585    -5.130748    -20.405022    -125.313599    -4.333869    -29.136539    -8.554929    -12.844173    2.826152    11.767865    31.630405    -12.138985    79.358200    -5.076239    10.230734    73.400497    -20.939482    7.539681    34.151352    18.313984    -4.809101    -7.272593    -18.169378    40.309307    -20.842325    5.525912    -31.539188    51.384418    0.000000    0.000000    0.000000    -23.057478    -16.720024    -25.688955    9.741354    29.608915    -16.530300    3.644254    3.094560    -9.164612    0.000000    0.000000    0.000000    
-15.565774    151.896515    -96.338150    1.542202    -4.380067    47.405437    4.421249    1.281098    8.438536    -7.439736    2.610785    3.001372    -4.874631    1.030466    -22.376314    17.767408    3.813901    -20.811722    0.713955    5.651073    -13.964818    -30.761929    25.603609    -51.578526    -5.133381    -20.416145    -125.305008    -4.192359    -29.161301    -8.478631    -12.814654    2.849336    11.757164    31.481890    -12.132983    79.081856    -5.127294    10.150342    73.431557    -20.874315    7.472414    34.385464    18.313665    -4.782780    -7.252340    -18.217852    40.317345    -20.780977    5.524635    -31.542019    51.377682    0.000000    0.000000    0.000000    -23.053574    -16.734695    -25.645510    9.743160    29.606802    -16.523657    3.640893    3.103655    -9.164510    0.000000    0.000000    0.000000    
-15.543930    151.893967    -96.347702    1.555918    -4.385240    47.357243    4.392687    1.282874    8.397033    -7.400347    2.613240    2.986695    -4.880655    1.041120    -22.370796    17.742163    3.815741    -20.808397    0.705117    5.643994    -13.977570    -30.763979    25.584557    -51.560570    -5.147910    -20.412825    -125.310806    -4.043342    -29.196556    -8.385491    -12.796989    2.890389    11.733566    31.351936    -12.152583    78.831161    -5.143926    10.115082    73.433823    -20.829124    7.412815    34.639698    18.308664    -4.756304    -7.225979    -18.256554    40.332684    -20.743568    5.521990    -31.555611    51.388168    0.000000    0.000000    0.000000    -23.053213    -16.740984    -25.627926    9.728903    29.605776    -16.522823    3.616457    3.120486    -9.127445    0.000000    0.000000    0.000000    
-15.527305    151.888733    -96.361069    1.563051    -4.385966    47.303574    4.377864    1.282358    8.355745    -7.390090    2.615011    2.972757    -4.850048    1.040013    -22.360855    17.681364    3.816256    -20.808449    0.711199    5.630425    -13.992863    -30.771202    25.567411    -51.529797    -5.163709    -20.418070    -125.334877    -3.887187    -29.246214    -8.276757    -12.768929    2.936615    11.715493    31.172630    -12.168930    78.513763    -5.198309    10.019781    73.491829    -20.730844    7.348313    34.861946    18.308796    -4.737000    -7.204018    -18.315773    40.340408    -20.676542    5.546003    -31.540024    51.383400    0.000000    0.000000    0.000000    -23.051546    -16.758141    -25.578712    9.729979    29.598436    -16.520376    3.634465    3.130565    -9.125754    0.000000    0.000000    0.000000    
-15.509871    151.881378    -96.370445    1.575108    -4.392555    47.251194    4.351934    1.273382    8.310069    -7.357649    2.640422    2.958221    -4.864529    1.043139    -22.352797    17.685995    3.823740    -20.798719    0.711933    5.610169    -13.985209    -30.745180    25.580917    -51.536552    -5.152354    -20.483660    -125.333931    -3.766003    -29.298054    -8.192607    -12.748277    2.977186    11.676903    31.034388    -12.204973    78.227432    -5.222010    9.981250    73.515877    -20.609940    7.317565    35.114182    18.308235    -4.710177    -7.183705    -18.363897    40.355919    -20.626808    5.553895    -31.549751    51.387009    0.000000    0.000000    0.000000    -23.050379    -16.770063    -25.549465    9.729331    29.603704    -16.493153    3.608179    3.132301    -9.127321    0.000000    0.000000    0.000000    
-15.492561    151.872131    -96.376854    1.594376    -4.401262    47.201279    4.321963    1.269272    8.262934    -7.346476    2.660922    2.943407    -4.824542    1.081839    -22.335682    17.680614    3.770964    -20.780359    0.757305    5.618330    -13.973617    -30.728933    25.575045    -51.567303    -5.146135    -20.549902    -125.331184    -3.640693    -29.358980    -8.106262    -12.681999    3.011130    11.645055    30.857937    -12.238708    77.888176    -5.240102    9.929604    73.560303    -20.501902    7.266167    35.371700    18.304098    -4.669813    -7.147675    -18.385899    40.364151    -20.635941    5.586065    -31.548937    51.412952    0.000000    0.000000    0.000000    -23.050577    -16.775963    -25.492096    9.734181    29.607267    -16.506207    3.612877    3.130327    -9.125180    0.000000    0.000000    0.000000    
-15.470526    151.863144    -96.386497    1.615771    -4.408123    47.145531    4.299323    1.266307    8.226699    -7.343639    2.677265    2.932183    -4.799901    1.123785    -22.320873    17.691568    3.735970    -20.763481    0.793545    5.636126    -13.965722    -30.715445    25.537834    -51.593781    -5.167172    -20.574169    -125.330597    -3.495169    -29.428810    -8.022661    -12.619685    3.058540    11.583722    30.651672    -12.244464    77.558525    -5.270184    9.829727    73.567574    -20.639925    7.060967    35.783295    18.292219    -4.627438    -7.094497    -18.396189    40.376907    -20.611271    5.596068    -31.552689    51.403618    0.000000    0.000000    0.000000    -23.056068    -16.784712    -25.463707    9.723663    29.621069    -16.487305    3.599671    3.130993    -9.099393    0.000000    0.000000    0.000000    
